name rise30.8019peak61.5557fall86.2505.mot
datacolumns 19
datarows 12
range 12.58495100000000 12.60329200000000
endheader
time	ground_force1_vx	ground_force1_vy	ground_force1_vz	ground_force1_px	ground_force1_py	ground_force1_pz	ground_force2_vx	ground_force2_vy	ground_force2_vz	ground_force2_px	ground_force2_py	ground_force2_pz	ground_torque1_x	ground_torque1_y	ground_torque1_z	ground_torque2_x	ground_torque2_y	ground_torque2_z	
12.58495100000000	51.42255200000000	772.02627700000005	42.72643800000000	0.22749500000000	0.00000000000000	0.09037100000000	0.00000000000000	0.00000000000000	0.00000000000000	0.00000000000000	0.00000000000000	0.00000000000000	0.00000000000000	11.14370200000000	0.00000000000000	0.00000000000000	0.00000000000000	0.00000000000000	
12.58662300000000	50.73178900000000	773.09113800000000	42.87786700000000	0.22632000000000	0.00000000000000	0.09042000000000	0.00000000000000	0.00000000000000	0.00000000000000	0.00000000000000	0.00000000000000	0.00000000000000	0.00000000000000	11.22837400000000	0.00000000000000	0.00000000000000	0.00000000000000	0.00000000000000	
12.58829300000000	50.03691900000000	773.98140799999999	43.01970300000000	0.22513600000000	0.00000000000000	0.09046900000000	0.00000000000000	0.00000000000000	0.00000000000000	0.00000000000000	0.00000000000000	0.00000000000000	0.00000000000000	11.30888200000000	0.00000000000000	0.00000000000000	0.00000000000000	0.00000000000000	
12.58995400000000	49.33829900000000	774.69871200000000	43.15146600000000	0.22394400000000	0.00000000000000	0.09051900000000	0.00000000000000	0.00000000000000	0.00000000000000	0.00000000000000	0.00000000000000	0.00000000000000	0.00000000000000	11.38503800000000	0.00000000000000	0.00000000000000	0.00000000000000	0.00000000000000	
12.59162600000000	48.63627400000000	775.24496299999998	43.27267300000000	0.22274200000000	0.00000000000000	0.09056900000000	0.00000000000000	0.00000000000000	0.00000000000000	0.00000000000000	0.00000000000000	0.00000000000000	0.00000000000000	11.45666100000000	0.00000000000000	0.00000000000000	0.00000000000000	0.00000000000000	
12.59329100000000	47.93117500000000	775.62235599999997	43.38285100000000	0.22153000000000	0.00000000000000	0.09061900000000	0.00000000000000	0.00000000000000	0.00000000000000	0.00000000000000	0.00000000000000	0.00000000000000	0.00000000000000	11.52357600000000	0.00000000000000	0.00000000000000	0.00000000000000	0.00000000000000	
12.59495600000000	47.22332600000000	775.83336699999995	43.48153900000000	0.22030900000000	0.00000000000000	0.09066900000000	0.00000000000000	0.00000000000000	0.00000000000000	0.00000000000000	0.00000000000000	0.00000000000000	0.00000000000000	11.58562100000000	0.00000000000000	0.00000000000000	0.00000000000000	0.00000000000000	
12.59662300000000	46.51304400000000	775.88074800000004	43.56828700000000	0.21907800000000	0.00000000000000	0.09071900000000	0.00000000000000	0.00000000000000	0.00000000000000	0.00000000000000	0.00000000000000	0.00000000000000	0.00000000000000	11.64264100000000	0.00000000000000	0.00000000000000	0.00000000000000	0.00000000000000	
12.59828700000000	45.80064000000000	775.76752499999998	43.64266700000000	0.21783700000000	0.00000000000000	0.09077000000000	0.00000000000000	0.00000000000000	0.00000000000000	0.00000000000000	0.00000000000000	0.00000000000000	0.00000000000000	11.69449500000000	0.00000000000000	0.00000000000000	0.00000000000000	0.00000000000000	
12.59995200000000	45.08642200000000	775.49698999999998	43.70427000000000	0.21658600000000	0.00000000000000	0.09082000000000	0.00000000000000	0.00000000000000	0.00000000000000	0.00000000000000	0.00000000000000	0.00000000000000	0.00000000000000	11.74105400000000	0.00000000000000	0.00000000000000	0.00000000000000	0.00000000000000	
12.60162500000000	44.37069600000000	775.07269399999996	43.75271400000000	0.21532500000000	0.00000000000000	0.09087000000000	0.00000000000000	0.00000000000000	0.00000000000000	0.00000000000000	0.00000000000000	0.00000000000000	0.00000000000000	11.78220600000000	0.00000000000000	0.00000000000000	0.00000000000000	0.00000000000000	
12.60329200000000	43.65376800000000	774.49844199999995	43.78764700000000	0.21405400000000	0.00000000000000	0.09092000000000	0.00000000000000	0.00000000000000	0.00000000000000	0.00000000000000	0.00000000000000	0.00000000000000	0.00000000000000	11.81784900000000	0.00000000000000	0.00000000000000	0.00000000000000	0.00000000000000	
